<svg width="40" height="40" viewBox="0 0 40 40" fill="none" xmlns="http://www.w3.org/2000/svg">
<rect width="40" height="40" rx="10" fill="#333982"/>
<path d="M9.872 26.728C9.696 26.728 9.544 26.672 9.416 26.56C9.304 26.432 9.248 26.28 9.248 26.104V18.64C9.248 18.432 9.328 18.272 9.488 18.16C9.552 16.272 10.08 14.504 11.072 12.856C12.032 11.272 13.296 10.008 14.864 9.064C16.48 8.088 18.208 7.6 20.048 7.6C21.904 7.6 23.648 8.088 25.28 9.064C26.864 10.024 28.128 11.304 29.072 12.904C30.064 14.552 30.584 16.328 30.632 18.232C30.728 18.344 30.776 18.48 30.776 18.64V26.104C30.776 26.264 30.712 26.408 30.584 26.536C30.472 26.664 30.328 26.728 30.152 26.728H26.552C26.376 26.728 26.224 26.672 26.096 26.56C25.984 26.432 25.928 26.28 25.928 26.104V18.64C25.928 18.464 25.984 18.32 26.096 18.208C26.224 18.08 26.376 18.016 26.552 18.016H28.568C28.488 16.512 28.048 15.112 27.248 13.816C26.464 12.552 25.44 11.544 24.176 10.792C22.88 10.024 21.504 9.64 20.048 9.64C18.592 9.64 17.216 10.024 15.92 10.792C14.656 11.528 13.64 12.536 12.872 13.816C12.056 15.112 11.608 16.512 11.528 18.016H13.448C13.624 18.016 13.776 18.08 13.904 18.208C14.032 18.32 14.096 18.464 14.096 18.64V26.104C14.096 26.28 14.032 26.432 13.904 26.56C13.776 26.672 13.624 26.728 13.448 26.728H12.08C12.032 28.104 12.648 29.056 13.928 29.584C14.872 29.984 16.152 30.136 17.768 30.04C17.8 29.864 17.888 29.72 18.032 29.608C18.176 29.496 18.336 29.44 18.512 29.44H21.704C21.912 29.44 22.088 29.512 22.232 29.656C22.376 29.8 22.448 29.976 22.448 30.184V30.856C22.448 31.064 22.376 31.24 22.232 31.384C22.088 31.528 21.912 31.6 21.704 31.6H18.512C18.208 31.6 17.992 31.472 17.864 31.216C15.928 31.312 14.344 31.064 13.112 30.472C11.544 29.72 10.8 28.472 10.88 26.728H9.872Z" fill="white"/>
</svg>
