<svg width="40" height="40" viewBox="0 0 40 40" fill="none" xmlns="http://www.w3.org/2000/svg">
<rect width="40" height="40" rx="10" fill="#2BB19A"/>
<path d="M27.464 11.632C27.56 11.632 27.632 11.664 27.68 11.728C27.744 11.792 27.776 11.864 27.776 11.944V22.384C27.776 23.632 27.16 24.904 25.928 26.2C25.032 27.128 23.848 28.032 22.376 28.912C21.624 29.36 20.88 29.752 20.144 30.088H20.12C20.104 30.104 20.064 30.112 20 30.112C19.936 30.112 19.896 30.104 19.88 30.088H19.856C19.12 29.752 18.376 29.36 17.624 28.912C16.152 28.032 14.968 27.128 14.072 26.2C12.84 24.904 12.224 23.632 12.224 22.384V11.944C12.224 11.864 12.248 11.792 12.296 11.728C12.36 11.664 12.44 11.632 12.536 11.632C13.672 11.632 14.704 11.552 15.632 11.392C16.416 11.248 17.104 11.056 17.696 10.816C18.192 10.608 18.608 10.376 18.944 10.12C19.2 9.928 19.4 9.736 19.544 9.544C19.656 9.4 19.72 9.312 19.736 9.28C19.752 9.232 19.784 9.192 19.832 9.16C19.88 9.112 19.936 9.088 20 9.088C20.064 9.088 20.12 9.112 20.168 9.16C20.216 9.192 20.248 9.232 20.264 9.28C20.28 9.312 20.344 9.4 20.456 9.544C20.6 9.752 20.8 9.944 21.056 10.12C21.392 10.392 21.8 10.624 22.28 10.816C22.888 11.072 23.584 11.264 24.368 11.392C25.28 11.552 26.312 11.632 27.464 11.632ZM25.256 16.12C25.32 16.056 25.336 15.992 25.304 15.928L25.088 15.616C24.928 15.408 24.84 15.304 24.824 15.304C23.528 16.088 22.272 17.04 21.056 18.16C20.224 18.912 19.488 19.672 18.848 20.44L16.616 18.688C16.6 18.672 16.384 18.84 15.968 19.192C15.552 19.544 15.352 19.736 15.368 19.768L19.424 23.896C19.456 23.928 19.496 23.944 19.544 23.944H19.568C19.568 23.944 19.568 23.936 19.568 23.92C19.616 23.92 19.656 23.888 19.688 23.824C20.056 22.848 20.72 21.672 21.68 20.296C22.8 18.68 23.992 17.288 25.256 16.12Z" fill="white"/>
</svg>
