<svg width="152" height="152" viewBox="0 0 152 152" fill="none" xmlns="http://www.w3.org/2000/svg">
<g opacity="0.7">
<mask id="mask0_2628_437" style="mask-type:alpha" maskUnits="userSpaceOnUse" x="0" y="0" width="152" height="152">
<circle cx="75.7321" cy="75.7321" r="75.2321" fill="#C4C4C4" stroke="#273272"/>
</mask>
<g mask="url(#mask0_2628_437)">
<path d="M-20.2695 36.6127C-20.2695 36.6127 11.1044 30.8009 19.1993 10.46C26.9409 -9.03903 58.8311 -14.2803 58.8311 -14.2803" stroke="#273272" stroke-miterlimit="10"/>
<path d="M-20.2695 46.3892C-20.2695 46.3892 18.2214 39.6814 28.1361 15.1311C37.5891 -8.30577 76.6776 -14.2803 76.6776 -14.2803" stroke="#273272" stroke-miterlimit="10"/>
<path d="M-20.2695 56.1931C-20.2695 56.1931 25.3111 48.5619 37.0458 19.8565C48.2373 -7.59957 94.5243 -14.2803 94.5243 -14.2803" stroke="#273272" stroke-miterlimit="10"/>
<path d="M-20.2695 65.9698C-20.2695 65.9698 32.428 57.4424 45.9827 24.5276C58.8854 -6.8663 112.371 -14.2803 112.371 -14.2803" stroke="#273272" stroke-miterlimit="10"/>
<path d="M-20.2695 75.7464C-20.2695 75.7464 39.5449 66.3229 54.9195 29.2258C69.5335 -6.13304 130.19 -14.2803 130.19 -14.2803" stroke="#273272" stroke-miterlimit="10"/>
<path d="M-20.2695 85.5502C-20.2695 85.5502 46.6346 75.2304 63.8292 33.9239C80.2088 -5.42704 148.037 -14.2803 148.037 -14.2803" stroke="#273272" stroke-miterlimit="10"/>
<path d="M-20.2695 95.3268C-20.2695 95.3268 53.7515 84.0836 72.7661 38.6223C90.8571 -4.69378 165.883 -14.2803 165.883 -14.2803" stroke="#273272" stroke-miterlimit="10"/>
<path d="M-20.2695 105.103C-20.2695 105.103 60.8684 92.9641 81.6757 43.2934C101.505 -3.96052 183.73 -14.2803 183.73 -14.2803" stroke="#273272" stroke-miterlimit="10"/>
<path d="M-20.2695 114.907C-20.2695 114.907 67.958 101.872 90.6126 48.0186C112.153 -3.25451 201.549 -14.2803 201.549 -14.2803" stroke="#273272" stroke-miterlimit="10"/>
<path d="M-20.2695 124.683C-20.2695 124.683 75.075 110.752 99.5224 52.717C122.802 -2.52124 219.396 -14.2803 219.396 -14.2803" stroke="#273272" stroke-miterlimit="10"/>
<path d="M-20.2695 134.487C-20.2695 134.487 82.1919 119.633 108.459 57.4151C133.45 -1.78799 237.242 -14.2803 237.242 -14.2803" stroke="#273272" stroke-miterlimit="10"/>
<path d="M-20.2695 144.265C-20.2695 144.265 89.2816 128.513 117.369 62.1135C144.098 -1.08178 255.088 -14.2803 255.088 -14.2803" stroke="#273272" stroke-miterlimit="10"/>
<path d="M-20.2695 154.04C-20.2695 154.04 96.3984 137.394 126.306 66.7844C154.746 -0.348529 272.935 -14.2803 272.935 -14.2803" stroke="#273272" stroke-miterlimit="10"/>
<path d="M-20.2695 163.844C-20.2695 163.844 103.515 146.274 135.243 71.5098C165.394 0.384736 290.755 -14.2803 290.755 -14.2803" stroke="#273272" stroke-miterlimit="10"/>
<path d="M-20.2695 173.622C-20.2695 173.622 110.605 155.155 144.152 76.1809C176.043 1.09074 308.601 -14.2803 308.601 -14.2803" stroke="#273272" stroke-miterlimit="10"/>
<path d="M-20.2695 183.399C-20.2695 183.399 117.722 164.035 153.089 80.8791C186.691 1.82401 326.448 -14.2803 326.448 -14.2803" stroke="#273272" stroke-miterlimit="10"/>
<path d="M-20.2695 193.203C-20.2695 193.203 124.839 172.942 161.999 85.5774C197.339 2.55727 344.294 -14.2803 344.294 -14.2803" stroke="#273272" stroke-miterlimit="10"/>
<path d="M-20.2695 202.978C-20.2695 202.978 131.929 181.796 170.936 90.2756C207.987 3.26327 362.114 -14.2803 362.114 -14.2803" stroke="#273272" stroke-miterlimit="10"/>
</g>
</g>
</svg>
