<svg width="25" height="24" viewBox="0 0 25 24" fill="none" xmlns="http://www.w3.org/2000/svg">
<g clip-path="url(#clip0_2678_677)">
<path d="M7.87902 21.9753C7.80673 21.9753 7.80673 21.9753 7.73445 21.9753L2.16818 19.4452C2.0236 19.3729 1.95131 19.2283 1.95131 19.0838L2.0236 18.5054C2.09589 17.8548 2.0236 17.2765 1.73445 16.6982L0.50553 14.0235C-0.145072 12.5777 -0.145072 10.9151 0.50553 9.4693L3.3971 2.96327C3.61396 2.52954 4.0477 2.16809 4.48143 2.02352C4.98746 1.87894 5.49348 2.02352 5.85493 2.31267C6.43324 2.74641 6.7224 3.54159 6.43324 4.26448L4.77059 9.03556C5.20432 9.10785 5.63806 9.39701 5.78264 9.83075L5.85493 10.0476L8.81878 16.4813C9.25252 17.2765 9.32481 18.2886 9.03565 19.156L8.24047 21.6862C8.24047 21.7585 8.09589 21.903 8.0236 21.903C7.95131 21.9753 7.87902 21.9753 7.87902 21.9753ZM2.74649 18.8669L7.66216 21.1079L8.38505 18.7946C8.60192 18.0717 8.52963 17.3488 8.24047 16.6982L5.20432 10.0476C5.05975 9.75846 4.77059 9.61388 4.40914 9.75846C4.26457 9.83074 4.11999 9.75846 4.0477 9.68617C3.97541 9.61388 3.90312 9.39701 3.97541 9.32472L5.85493 4.04761C5.99951 3.68617 5.85493 3.25243 5.49348 2.96327C5.20432 2.74641 4.91517 2.67412 4.62601 2.74641C4.40914 2.8187 4.19228 2.96327 4.0477 3.25243L1.15613 9.75846C0.577819 10.9874 0.650108 12.4332 1.15613 13.6621L2.38505 16.3368C2.6742 17.0597 2.81878 17.7826 2.74649 18.5777V18.8669Z" fill="#2BB19A" stroke="#2BB19A" stroke-width="0.5"/>
<path d="M8.45741 23.9998C8.38512 23.9998 8.38512 23.9998 8.31283 23.9998C8.09596 23.9275 8.02367 23.7106 8.09596 23.4938L8.31283 22.8432C8.38512 22.554 8.24054 22.1925 7.95138 22.048L2.38512 19.5178C2.24054 19.4456 2.02367 19.4456 1.87909 19.5178C1.73452 19.5901 1.58994 19.7347 1.51765 19.8793L1.30078 20.5299C1.22849 20.7468 1.01162 20.8191 0.794757 20.7468C0.57789 20.6745 0.505601 20.4576 0.57789 20.2407L0.794757 19.5901C0.939335 19.2287 1.22849 18.9395 1.58994 18.795C1.95138 18.6504 2.38512 18.6504 2.67428 18.795L8.24054 21.3251C8.89114 21.6142 9.1803 22.3371 8.96343 22.9877L8.74656 23.6383C8.81885 23.9275 8.67427 23.9998 8.45741 23.9998Z" fill="#2BB19A" stroke="#2BB19A" stroke-width="0.5"/>
<path d="M5.34946 14.9635C5.20488 14.9635 5.0603 14.8912 4.98801 14.7467L3.18078 10.9153C2.96392 10.4816 3.03621 9.90328 3.32536 9.54184L3.39765 9.46955L3.90368 9.1081C4.04825 8.96353 4.33741 9.03581 4.4097 9.18039C4.55428 9.32497 4.48199 9.61413 4.33741 9.68642L3.83139 10.0479C3.68681 10.1924 3.68681 10.4093 3.7591 10.6262L5.7109 14.4575C5.78319 14.6744 5.7109 14.8912 5.49404 14.9635C5.49404 14.9635 5.42175 14.9635 5.34946 14.9635Z" fill="#2BB19A" stroke="#2BB19A" stroke-width="0.5"/>
<path d="M16.2637 21.9769C16.1914 21.9769 16.1914 21.9769 16.1192 21.9769C15.9746 21.9046 15.9023 21.8323 15.9023 21.6878L15.0348 19.0131C14.7457 18.1456 14.818 17.1336 15.2517 16.3384L18.2878 9.76006C18.5047 9.32632 18.8661 9.03717 19.2999 8.96488L17.6372 4.19379C17.4204 3.4709 17.6372 2.67572 18.2155 2.24199C18.6493 1.95283 19.1553 1.88054 19.589 1.95283C20.0951 2.09741 20.4565 2.38657 20.6734 2.8203L23.5649 9.32632C24.2155 10.7721 24.2155 12.4348 23.5649 13.8805L22.336 16.5552C22.0469 17.1336 21.9746 17.7842 22.0469 18.3625L22.1192 18.9408C22.1192 19.0854 22.0469 19.3022 21.9023 19.3022L16.336 21.8323C16.336 21.9769 16.2637 21.9769 16.2637 21.9769ZM19.5167 9.68777C19.2999 9.68777 19.083 9.83235 18.9384 10.0492L18.8661 10.2661L15.9023 16.6275C15.5408 17.2781 15.5408 18.0733 15.7577 18.7239L16.4806 21.0372L21.3963 18.7962L21.324 18.4348C21.2517 17.6396 21.324 16.9167 21.6854 16.1938L22.9143 13.5191C23.4927 12.2902 23.4927 10.8444 22.9143 9.61548L20.0228 3.10946C19.8782 2.89259 19.6613 2.67572 19.4445 2.60343C19.1553 2.53114 18.8661 2.60343 18.6493 2.74801C18.2878 2.96488 18.2155 3.39861 18.2878 3.83235L20.1674 9.10946C20.2396 9.25404 20.1674 9.39861 20.0951 9.4709C20.0228 9.54319 19.8059 9.61548 19.7336 9.54319C19.6613 9.68777 19.589 9.68777 19.5167 9.68777Z" fill="#2BB19A" stroke="#2BB19A" stroke-width="0.5"/>
<path d="M15.6124 24.0007C15.4678 24.0007 15.3232 23.9284 15.251 23.7116L15.0341 23.061C14.8172 22.4104 15.1064 21.6875 15.757 21.3983L21.3232 18.8682C21.6847 18.7236 22.0461 18.7236 22.4076 18.8682C22.769 19.0128 23.0582 19.3019 23.2028 19.6634L23.4196 20.314C23.4919 20.5308 23.4196 20.7477 23.2028 20.82C22.9859 20.8923 22.769 20.82 22.6967 20.6031L22.4799 19.9525C22.4076 19.808 22.263 19.6634 22.1184 19.5911C21.9738 19.5188 21.757 19.5188 21.6124 19.5911L16.0461 22.1212C15.757 22.2658 15.6124 22.5549 15.6847 22.9164L15.9016 23.567C15.9738 23.7839 15.8293 24.0007 15.6847 24.073C15.6847 24.0007 15.6124 24.0007 15.6124 24.0007Z" fill="#2BB19A" stroke="#2BB19A" stroke-width="0.5"/>
<path d="M18.7206 14.9635C18.6483 14.9635 18.6483 14.9635 18.576 14.9635C18.3591 14.8912 18.2869 14.6744 18.3591 14.4575L20.1664 10.6262C20.2387 10.4093 20.2387 10.2647 20.0941 10.0479L19.5881 9.68642C19.4435 9.54184 19.3712 9.32497 19.5158 9.18039C19.6603 9.03581 19.8772 8.96353 20.0218 9.1081L20.5278 9.46955L20.6001 9.54184C20.8893 9.97557 20.9615 10.4816 20.7447 10.9153L18.9375 14.7467C19.0097 14.8912 18.8652 14.9635 18.7206 14.9635Z" fill="#2BB19A" stroke="#2BB19A" stroke-width="0.5"/>
<path d="M13.5167 16.2647C13.3721 16.2647 13.2275 16.1924 13.083 16.1201L11.9986 15.3249L10.9143 16.1201C10.6974 16.2647 10.336 16.2647 10.1191 16.1201C9.90223 15.9755 9.75765 15.6141 9.90223 15.3249L10.336 14.0237L9.25163 13.2286C9.03476 13.084 8.89018 12.7225 9.03476 12.4334C9.10705 12.1442 9.39621 11.9273 9.68536 11.9273H11.0589L11.4926 10.6261C11.5649 10.337 11.854 10.1201 12.1432 10.1201C12.4323 10.1201 12.7215 10.337 12.7938 10.6261L13.2275 11.9273H14.4564C14.7456 11.9273 15.0348 12.1442 15.107 12.4334C15.1793 12.7225 15.107 13.0117 14.8902 13.2286L13.8058 14.0237L14.2396 15.3249C14.3119 15.6141 14.2396 15.9032 14.0227 16.1201C13.8058 16.1924 13.6613 16.2647 13.5167 16.2647ZM12.0709 14.5298C12.2155 14.5298 12.3601 14.602 12.5046 14.6743L13.4444 15.3972L13.0107 14.2406C12.9384 13.9514 13.0107 13.6623 13.2275 13.4454L14.1673 12.7225H13.0107C12.7215 12.7225 12.4324 12.5057 12.3601 12.2165L11.9986 11.1322L11.7095 12.2888C11.6372 12.5779 11.348 12.7948 11.0589 12.7948H9.90223L10.842 13.5177C11.0589 13.6623 11.2034 14.0237 11.0589 14.3129L10.6974 15.3972L11.6372 14.6743C11.7817 14.602 11.9263 14.5298 12.0709 14.5298Z" fill="#2BB19A" stroke="#2BB19A" stroke-width="0.5"/>
<path d="M9.39736 9.83133C9.18049 9.83133 9.03592 9.75904 8.89134 9.68675C8.52989 9.46988 8.4576 9.03614 8.52989 8.6747L9.25278 6.36145C9.25278 6.28916 9.25278 6.21687 9.18049 6.21687L7.22869 4.77108C6.93953 4.48193 6.79495 4.12048 6.93953 3.68675C7.08411 3.3253 7.37327 3.03614 7.807 3.03614H10.2648C10.3371 3.03614 10.4094 2.96386 10.4094 2.96386L11.1323 0.650602C11.2769 0.216867 11.6383 0 12.0721 0C12.5058 0 12.795 0.216867 12.9395 0.650602L13.6624 2.96386C13.6624 3.03614 13.7347 3.03614 13.807 3.03614H16.2648C16.6986 3.03614 16.9877 3.25301 17.1323 3.68675C17.2769 4.04819 17.1323 4.48193 16.7709 4.6988L14.819 6.14458C14.7468 6.21687 14.7468 6.21687 14.7468 6.28916L15.4697 8.60241C15.6142 8.96385 15.4697 9.39759 15.1082 9.61446C14.7468 9.83133 14.3853 9.83133 14.0239 9.61446L12.0721 8.16867C11.9998 8.09639 11.9275 8.09639 11.9275 8.16867L9.97568 9.61446C9.8311 9.83133 9.61423 9.83133 9.39736 9.83133ZM7.807 3.83133C7.73471 3.83133 7.66242 3.90361 7.66242 3.90361C7.66242 3.9759 7.66242 4.04819 7.73471 4.04819L9.68652 5.49398C9.97568 5.71084 10.1203 6.14458 10.048 6.50602L9.32507 8.81928C9.32507 8.89157 9.32507 8.96385 9.39736 8.96385C9.39736 8.96385 9.46965 9.03614 9.54194 8.96385L11.4937 7.51807C11.7829 7.3012 12.2166 7.3012 12.5781 7.51807L14.5299 8.96385C14.6022 9.03614 14.6745 8.96385 14.6745 8.96385C14.6745 8.96385 14.7468 8.89157 14.7468 8.81928L14.0239 6.50602C13.8793 6.14458 14.0239 5.71084 14.3853 5.49398L16.3371 4.04819C16.4094 3.9759 16.4094 3.90361 16.4094 3.90361C16.4094 3.83133 16.3371 3.83133 16.2648 3.83133H13.807C13.3733 3.83133 13.0841 3.54217 12.9395 3.18072L12.2166 0.86747C12.2166 0.795181 12.1444 0.795181 12.0721 0.795181C11.9998 0.795181 11.9275 0.795181 11.9275 0.86747L11.2046 3.18072C11.06 3.54217 10.6986 3.83133 10.3371 3.83133H7.807Z" fill="#2BB19A" stroke="#2BB19A" stroke-width="0.5"/>
<path d="M12.0724 22.1206C11.8555 22.1206 11.7109 21.9761 11.7109 21.7592V18.0002C11.7109 17.8556 11.8555 17.711 12.0001 17.6387C12.1447 17.5664 12.3615 17.6387 12.4338 17.7833L13.1567 18.8676C13.3013 19.0122 13.229 19.3014 13.0844 19.3737C12.9399 19.5182 12.6507 19.4459 12.5784 19.3014L12.5061 19.2291V21.6869C12.4338 21.9761 12.217 22.1206 12.0724 22.1206Z" fill="#2BB19A" stroke="#2BB19A" stroke-width="0.5"/>
<path d="M12.0713 22.1196C11.8545 22.1196 11.7099 21.9751 11.7099 21.7582V19.3004L11.6376 19.3727C11.493 19.5172 11.2761 19.5895 11.1316 19.4449C10.987 19.3004 10.9147 19.0835 11.0593 18.9389L11.7822 17.8546C11.8545 17.71 12.0713 17.6377 12.2159 17.71C12.3605 17.7823 12.5051 17.9269 12.5051 18.0714V21.8305C12.4328 21.9751 12.2159 22.1196 12.0713 22.1196Z" fill="#2BB19A" stroke="#2BB19A" stroke-width="0.5"/>
</g>
<defs>
<clipPath id="clip0_2678_677">
<rect width="24.0723" height="24" fill="white"/>
</clipPath>
</defs>
</svg>
